<?xml version="1.0" standalone="no"?>
<!DOCTYPE svg PUBLIC "-//W3C//DTD SVG 20010904//EN"
 "http://www.w3.org/TR/2001/REC-SVG-20010904/DTD/svg10.dtd">
<svg version="1.0" xmlns="http://www.w3.org/2000/svg"
 width="500.000000pt" height="500.000000pt" viewBox="0 0 500.000000 500.000000"
 preserveAspectRatio="xMidYMid meet">
<metadata>
Created by potrace 1.14, written by Peter Selinger 2001-2017
</metadata>
<g transform="translate(0.000000,500.000000) scale(0.100000,-0.100000)"
fill="#000000" stroke="none">
<path d="M2400 4406 c-149 -32 -253 -138 -284 -288 l-12 -61 -80 -22 -80 -22
-16 27 c-8 15 -35 36 -59 48 -126 60 -259 -55 -215 -188 11 -34 10 -36 -34
-80 -45 -45 -118 -131 -133 -156 -4 -8 -19 -11 -40 -8 -21 3 -42 -2 -64 -15
-41 -26 -52 -75 -29 -135 14 -37 15 -47 3 -77 -8 -19 -17 -46 -21 -61 -6 -26
-4 -28 22 -28 26 0 30 5 46 55 9 30 20 55 24 56 57 6 88 25 108 67 14 31 15
38 2 71 -17 42 -28 25 104 173 l60 67 36 -20 c20 -10 46 -19 58 -19 33 0 86
21 111 44 19 18 54 84 53 101 0 3 0 9 0 15 0 5 26 17 58 26 31 8 65 18 74 20
13 4 19 -5 27 -38 6 -24 22 -63 35 -88 l24 -46 -69 -57 -69 -58 -30 23 c-42
31 -133 36 -180 10 -47 -26 -89 -87 -96 -143 -13 -94 57 -184 153 -197 l47 -7
38 -115 38 -114 -35 -28 c-18 -16 -42 -47 -52 -69 -15 -35 -21 -40 -43 -35
-38 9 -197 41 -245 50 -97 17 -95 16 -95 41 0 60 -47 125 -115 156 -126 58
-275 -40 -275 -181 0 -127 146 -225 265 -180 25 10 32 9 40 -5 6 -9 31 -49 56
-88 l46 -72 -28 -35 c-55 -70 -54 -163 3 -234 30 -38 31 -40 15 -65 -9 -14
-30 -51 -46 -82 l-30 -56 24 -11 c22 -10 26 -7 49 33 14 24 26 47 26 51 0 3 9
21 20 40 18 28 24 31 48 25 16 -5 47 -3 76 4 l49 13 70 -74 c38 -41 84 -91
101 -111 17 -21 44 -51 59 -67 18 -18 26 -35 22 -46 -13 -42 -14 -64 -1 -94
22 -52 51 -71 111 -72 48 0 56 -4 81 -35 15 -19 29 -35 30 -37 4 -7 44 19 44
28 0 5 -13 25 -30 43 -29 33 -29 36 -16 68 7 19 12 46 11 61 -3 23 5 31 65 67
l69 41 26 -24 c15 -14 40 -28 56 -31 l29 -7 -3 -84 -4 -84 29 0 c22 0 29 4 27
18 -1 9 -1 47 0 85 1 57 4 67 19 67 9 0 35 10 58 22 l41 21 56 -34 c44 -27 55
-39 55 -59 -1 -14 2 -40 6 -58 7 -29 3 -38 -29 -73 l-37 -41 23 -16 c21 -15
24 -14 58 27 32 37 39 41 68 35 70 -14 143 41 143 108 0 32 2 34 88 66 198 75
191 72 179 99 -13 28 -2 31 -166 -37 -74 -30 -127 -47 -131 -41 -10 17 -73 38
-103 35 -16 -2 -40 -10 -54 -19 -23 -16 -27 -15 -77 15 -52 32 -53 33 -42 64
17 49 22 53 73 55 26 1 64 4 83 6 19 2 89 7 155 11 66 4 131 8 145 9 14 1 40
3 57 4 28 1 32 4 29 24 -3 20 -8 22 -72 21 -66 -1 -172 -7 -369 -20 l-90 -6
-13 35 c-16 45 -70 93 -119 106 -75 20 -158 -6 -190 -59 -20 -35 -25 -36 -77
-11 -34 16 -39 23 -42 57 -3 39 -2 40 77 91 74 49 82 52 102 39 22 -15 49 -19
100 -17 33 1 87 52 87 81 0 25 24 32 155 44 8 0 25 -19 37 -44 27 -52 72 -82
131 -85 52 -3 88 9 117 40 l22 23 95 -59 c89 -56 96 -58 109 -42 18 24 17 32
-4 41 -10 4 -53 29 -95 56 l-76 50 6 42 c4 32 0 51 -17 82 l-23 40 28 34 28
35 40 -19 c26 -13 55 -19 83 -16 24 2 44 0 44 -3 0 -3 23 -54 51 -113 48 -103
51 -107 69 -91 22 20 16 41 -43 160 l-34 69 33 34 c18 18 37 46 42 61 13 36 8
121 -8 152 -15 28 -60 68 -77 69 -18 0 -17 6 19 96 l33 82 50 5 c27 3 59 7 69
9 14 2 28 -12 52 -51 l33 -55 -23 -23 c-55 -55 -26 -154 52 -177 16 -6 22 -15
23 -39 0 -18 3 -45 5 -60 4 -20 -2 -37 -21 -58 -52 -63 -14 -159 65 -159 39 0
83 32 92 68 8 31 -12 82 -40 99 -37 24 -39 27 -46 95 -7 55 -5 62 14 75 12 9
28 31 36 49 12 29 12 39 -2 74 -16 39 -54 70 -88 70 -8 0 -27 21 -43 46 -54
89 -53 85 -31 108 55 57 67 174 26 248 -46 83 -133 120 -244 103 -38 -5 -56
-16 -94 -54 -28 -28 -49 -59 -53 -79 l-6 -32 -103 0 -103 0 -27 34 c-32 40
-85 61 -132 52 -69 -13 -106 -97 -76 -171 12 -29 10 -34 -34 -98 -26 -37 -50
-67 -52 -67 -3 0 -27 7 -55 16 -53 18 -53 18 -79 139 -5 28 -12 60 -15 73 -4
17 -1 22 15 22 26 0 118 45 152 74 54 48 96 115 108 171 6 30 13 55 15 55 15
0 130 -49 181 -76 l61 -33 12 26 c7 14 8 29 4 34 -17 16 -132 69 -194 89 -63
20 -66 22 -67 54 -4 103 -40 178 -115 240 -93 76 -206 105 -317 82z m-83 -688
c34 -16 87 -32 117 -35 l55 -6 21 -91 c11 -50 23 -96 25 -103 2 -7 -16 -21
-43 -33 -26 -12 -59 -32 -73 -46 l-26 -25 -151 72 -151 72 0 52 c1 29 -4 62
-10 73 -9 17 -6 24 22 45 17 14 49 41 71 61 l38 35 22 -21 c11 -11 49 -34 83
-50z m903 -103 c0 -56 61 -144 110 -160 17 -5 15 -14 -19 -92 -36 -83 -40 -87
-72 -90 -50 -6 -119 -52 -141 -95 l-19 -37 -47 19 c-26 10 -90 34 -143 51
l-97 33 -5 43 c-2 24 -16 61 -30 82 l-26 39 29 34 c16 18 37 47 46 64 16 29
22 32 76 36 47 3 64 10 88 33 17 16 30 37 30 47 0 16 10 18 110 18 l110 0 0
-25z m-941 -237 l93 -44 2 -80 1 -79 -74 -38 -74 -39 -21 25 c-27 31 -52 44
-101 51 -22 4 -43 10 -46 14 -4 4 -23 54 -43 112 -35 97 -36 106 -20 115 9 6
31 22 48 36 l31 27 55 -27 c30 -15 97 -48 149 -73z m704 -254 c71 -27 97 -46
97 -70 0 -8 7 -28 15 -44 15 -29 14 -31 -15 -64 -30 -33 -32 -33 -61 -19 -27
14 -95 13 -119 -2 -5 -3 -35 27 -67 66 -32 40 -67 83 -79 97 l-21 26 24 34
c12 19 23 38 23 43 0 8 30 -2 203 -67z m-541 -28 c22 -19 54 -38 70 -41 20 -5
28 -11 24 -21 -3 -8 -10 -45 -16 -82 -18 -109 -18 -109 -47 -117 -16 -3 -35
-13 -44 -21 -15 -14 -26 -10 -103 38 -63 39 -84 57 -79 68 3 8 7 42 8 75 l2
60 69 37 c38 20 71 37 72 37 2 1 22 -15 44 -33z m322 -96 c12 -14 36 -46 54
-71 27 -40 29 -49 17 -59 -8 -6 -19 -27 -25 -45 -12 -37 -21 -41 -121 -51 -61
-6 -67 -5 -73 13 -3 11 -19 29 -35 41 -27 20 -28 24 -20 64 4 24 13 69 19 101
10 48 15 57 33 57 12 1 36 7 52 14 33 15 24 20 99 -64z m-1129 31 c33 -5 76
-12 95 -15 19 -3 60 -10 90 -17 30 -7 61 -12 68 -12 7 0 15 -12 18 -26 4 -14
12 -35 19 -47 16 -25 15 -27 -60 -89 -33 -28 -63 -54 -67 -59 -3 -5 -22 -1
-43 9 -40 18 -93 23 -136 12 -21 -5 -28 -2 -40 21 -7 15 -31 54 -51 88 -21 34
-38 64 -38 68 0 3 11 25 25 47 18 28 31 39 43 35 9 -3 44 -9 77 -15z m628
-199 c123 -67 132 -76 131 -117 -1 -36 -5 -40 -84 -90 l-82 -53 -32 17 c-17
10 -37 17 -43 16 -7 -2 -24 -3 -38 -4 -14 0 -37 -14 -52 -30 l-28 -28 -85 24
c-47 14 -86 26 -88 28 -2 2 -6 18 -9 36 -3 19 -11 46 -19 61 -16 30 -17 29 58
91 80 67 77 66 115 46 48 -25 133 -20 170 8 15 12 30 22 31 22 2 1 27 -12 55
-27z m-318 -316 c75 -22 80 -25 86 -55 16 -76 98 -106 182 -66 31 15 37 14 80
-4 41 -18 47 -24 47 -49 0 -16 3 -43 6 -59 5 -28 2 -32 -62 -71 -38 -23 -71
-38 -74 -34 -19 28 -96 38 -140 18 -11 -4 -34 15 -77 66 -33 40 -90 103 -126
140 l-66 68 22 35 c12 19 27 34 32 34 6 0 46 -10 90 -23z"/>
<path d="M3018 3436 c-37 -28 -9 -106 37 -106 27 0 65 35 65 60 0 49 -62 77
-102 46z"/>
<path d="M3166 3868 c-24 -33 5 -75 43 -63 23 7 33 39 17 58 -20 25 -45 27
-60 5z"/>
<path d="M1663 3425 c-77 -63 -153 -137 -153 -147 0 -11 29 -42 35 -37 2 2 46
44 99 93 53 50 96 93 96 96 0 3 -6 13 -12 22 -12 15 -19 12 -65 -27z"/>
<path d="M1692 3237 c-43 -20 -37 -88 9 -102 12 -4 32 -2 44 5 62 33 12 126
-53 97z"/>
<path d="M1255 2853 c-4 -21 -10 -57 -14 -80 -10 -49 -7 -53 31 -53 22 0 28 5
29 23 0 12 2 31 4 42 2 11 7 35 10 53 5 28 3 33 -20 42 -35 13 -33 15 -40 -27z"/>
<path d="M3499 2692 c-128 -47 -222 -195 -212 -336 10 -146 149 -282 298 -291
137 -8 248 55 313 180 36 68 38 205 6 276 -32 68 -86 122 -158 158 -53 26 -75
31 -132 31 -39 -1 -89 -8 -115 -18z"/>
<path d="M1206 2671 c-68 -41 -63 -147 9 -176 44 -19 59 -19 100 1 46 22 59
61 42 131 -14 54 -95 78 -151 44z"/>
<path d="M1275 2452 c-32 -6 -34 -14 -21 -77 11 -55 14 -60 37 -57 13 2 27 7
31 10 6 6 -16 121 -24 126 -2 1 -12 0 -23 -2z"/>
<path d="M1261 2268 c-103 -29 -185 -138 -190 -251 -4 -109 67 -220 164 -256
183 -69 364 49 368 239 4 184 -168 318 -342 268z"/>
<path d="M1686 2264 c-17 -16 -21 -51 -8 -71 4 -6 19 -14 34 -18 37 -9 72 26
63 63 -4 15 -12 30 -18 34 -20 13 -55 9 -71 -8z"/>
<path d="M3409 2022 c-19 -16 -64 -49 -100 -74 l-67 -45 18 -23 18 -24 44 29
c60 40 142 105 150 120 4 7 -1 20 -11 29 -18 16 -21 16 -52 -12z"/>
<path d="M2383 1926 c-91 -30 -189 -108 -229 -182 -10 -19 -21 -34 -24 -34 -3
0 -28 13 -56 30 -44 25 -52 34 -57 67 -5 28 -15 44 -40 61 -94 63 -204 -27
-153 -126 27 -52 90 -70 143 -41 30 17 33 17 65 -2 18 -10 43 -24 56 -31 20
-10 22 -17 16 -52 -19 -116 1 -210 67 -308 105 -153 314 -206 494 -124 147 67
234 219 222 390 l-6 81 51 22 50 23 30 -25 c31 -26 40 -28 97 -26 142 4 180
208 51 273 -49 25 -89 22 -138 -9 -45 -29 -77 -90 -70 -134 2 -20 -6 -29 -45
-52 -27 -16 -50 -27 -51 -25 -1 2 -11 20 -21 41 -30 58 -103 125 -174 160 -54
26 -77 31 -150 34 -54 2 -102 -2 -128 -11z"/>
<path d="M3492 1890 c-42 -26 -66 -80 -58 -134 6 -44 2 -55 -29 -72 -28 -16
-27 -58 3 -62 14 -2 24 3 29 15 3 10 13 26 21 36 15 16 16 16 35 0 13 -13 36
-18 74 -18 50 0 58 3 83 34 53 62 48 146 -11 196 -38 32 -100 34 -147 5z"/>
<path d="M1500 1722 l-22 -18 73 -74 c71 -74 73 -76 70 -123 -3 -42 1 -51 32
-82 51 -51 118 -46 161 11 56 76 -20 187 -111 162 -32 -9 -37 -7 -72 29 -20
21 -50 55 -65 76 -32 42 -36 43 -66 19z"/>
<path d="M3308 1603 c-34 -9 -33 -58 2 -60 28 -2 44 21 30 46 -6 12 -12 20
-13 20 -1 -1 -9 -3 -19 -6z"/>
<path d="M3185 1519 c-9 -29 21 -55 42 -37 21 17 12 52 -14 56 -15 2 -23 -4
-28 -19z"/>
<path d="M3075 1507 c-27 -14 -35 -27 -35 -57 1 -61 74 -87 112 -41 23 29 23
53 1 80 -22 26 -52 33 -78 18z"/>
<path d="M1856 1448 c-3 -13 -6 -26 -6 -30 0 -7 97 -39 158 -53 31 -6 32 -5
32 23 0 29 -4 32 -57 47 -32 8 -68 20 -81 25 -33 14 -39 13 -46 -12z"/>
<path d="M2954 1405 c-8 -21 2 -45 19 -45 20 0 40 27 33 45 -7 19 -45 20 -52
0z"/>
<path d="M2317 834 c-1 -1 -92 -4 -202 -8 -110 -3 -222 -8 -250 -11 -27 -2
-79 -7 -115 -10 -76 -7 -105 -13 -142 -27 -35 -13 -29 -24 19 -33 21 -4 49 -9
63 -12 14 -3 46 -6 73 -6 26 -1 47 -4 47 -7 0 -3 42 -5 93 -6 50 0 155 -4 232
-7 160 -8 531 -9 680 -2 408 19 567 34 580 55 12 20 -31 31 -175 44 -125 12
-176 15 -330 22 -143 6 -568 12 -573 8z"/>
</g>
</svg>
